<svg xmlns="http://www.w3.org/2000/svg" width="256" height="256"><path fill-opacity=".016" d="M0 128.004v128.004l128.25-.254 128.25-.254.254-127.75L257.008 0H0v128.004m.485.496c0 70.4.119 99.053.265 63.672.146-35.38.146-92.98 0-128C.604 29.153.485 58.1.485 128.5" fill="#1976D2" fill-rule="evenodd"/><path fill-opacity=".163" d="M49 1.558c-6.509 1.689-22.205 9.403-22.771 11.192C25.914 13.744 46.722 14 128 14s102.086-.256 101.771-1.25c-.593-1.874-16.424-9.543-23.231-11.253C197.912-.67 57.381-.616 49 1.558M8.139 32.89C6.413 36.129 5 39.054 5 39.39c0 .335 55.35.61 123 .61s123-.275 123-.61c0-.336-1.413-3.261-3.139-6.5l-3.14-5.89H11.279l-3.14 5.89M.67 53.663c-.368.369-.67 3.52-.67 7.004V67h255.091l-.295-6.75-.296-6.75-126.58-.254c-69.618-.139-126.881.048-127.25.417M0 87.011v6.997l128.25-.254L256.5 93.5l.289-7 .289-7-128.539.258L0 80.015v6.996M.336 87c0 4.125.177 5.813.392 3.75.216-2.062.216-5.437 0-7.5C.513 81.188.336 82.875.336 87M0 114.011v6.997l128.25-.254 128.25-.254.289-7 .289-7-128.539.258L0 107.015v6.996M.336 114c0 4.125.177 5.813.392 3.75.216-2.062.216-5.437 0-7.5-.215-2.062-.392-.375-.392 3.75m-.129 55.258.32 36.242 2.609 6.742c3.912 10.105 8.634 17.442 15.907 24.715 7.524 7.525 14.703 12.058 25.122 15.864L51.5 255.5h153l7.335-2.679c10.402-3.8 17.589-8.333 25.122-15.845 7.72-7.699 13.274-16.788 16.179-26.476 1.154-3.85 2.496-7.781 2.981-8.736.486-.955.883-16.93.883-35.5V132.5l-128.557.258-128.557.257.321 36.243M.45 167.5c.001 19.25.135 26.983.299 17.185.164-9.797.163-25.547-.001-35C.584 140.233.45 148.25.45 167.5" fill="#1976D2" fill-rule="evenodd"/><path fill-opacity=".657" d="M55.5.676c-8.277 1.157-26.185 8.387-27.985 11.299C27.084 12.672 59.205 13 128 13s100.916-.328 100.485-1.025c-.908-1.469-13.016-7.425-19.487-9.587C203.883.68 198.455.542 131 .405 91.125.323 57.15.446 55.5.676m-44.256 27.57c-.554.69-2.193 3.616-3.642 6.504L4.966 40H251.11l-3.305-6.25-3.305-6.25-116.124-.254c-92.148-.202-116.332.005-117.132 1M.63 56.25c-.331 1.237-.609 4.163-.616 6.5L0 67h255l-.014-4.25c-.007-2.337-.285-5.263-.616-6.5l-.603-2.25H1.233L.63 56.25M0 87.511v6.497l128.25-.254L256.5 93.5l.29-6.5.29-6.5-128.54.258L0 81.015v6.496m.328-.011c.005 3.85.185 5.302.402 3.228.216-2.075.213-5.225-.008-7C.501 81.952.324 83.65.328 87.5M0 114.511v6.497l128.25-.254 128.25-.254.29-6.5.29-6.5-128.54.258L0 108.015v6.496m.328-.011c.005 3.85.185 5.302.402 3.228.216-2.075.213-5.225-.008-7-.221-1.776-.398-.078-.394 3.772m-.311 51.258C.037 202.187.634 206.74 7.125 220c3.306 6.754 5.826 10.144 12.268 16.504 8.893 8.78 15.878 12.994 27.607 16.655l7.5 2.341h147l7.5-2.341c11.738-3.663 18.714-7.874 27.598-16.655 9.069-8.964 15.305-19.786 17.405-30.204.643-3.19 1.581-6.581 2.083-7.536.503-.955.914-16.03.914-33.5V133.5l-128.5.258-128.5.257.017 31.743m.431.742c-.001 18.15.134 25.716.3 16.814.165-8.903.166-23.753.001-33-.166-9.248-.301-1.964-.301 16.186" fill="#1976D2" fill-rule="evenodd"/><path fill-opacity=".334" d="M56.781.996c-8.26 1.059-18.959 4.737-25.021 8.601l-5.26 3.352h203l-5.209-3.321c-6.416-4.089-16.347-7.429-25.71-8.646-8.289-1.077-133.387-1.065-141.8.014M9.211 32.299C7.445 35.213 6 38.138 6 38.799 6 39.727 33.699 40 128 40s122-.273 122-1.201c0-.661-1.445-3.586-3.211-6.5L243.577 27H12.423l-3.212 5.299M.612 59.641c-.364 3.103-.505 5.8-.312 5.993.194.193 57.467.361 127.276.374 126.607.022 126.924.017 126.853-1.993-.04-1.108-.152-3.815-.25-6.015L254 54H1.275l-.663 5.641M0 87.011v5.997l128.25-.254L256.5 92.5l.291-6 .292-6-128.542.258L0 81.015v5.996M.32 87c0 3.575.182 5.037.403 3.25.222-1.787.222-4.713 0-6.5C.502 81.963.32 83.425.32 87M0 114.011v5.997l128.25-.254 128.25-.254.291-6 .292-6-128.542.258L0 108.015v5.996M.32 114c0 3.575.182 5.037.403 3.25.222-1.787.222-4.713 0-6.5-.221-1.787-.403-.325-.403 3.25m-.051 53.758c.505 37.92.764 39.655 8.041 53.742 7.932 15.358 22.92 27.083 40.299 31.528C55.931 254.901 59.932 255 128 255c68.068 0 72.069-.099 79.391-1.972 17.377-4.444 32.363-16.168 40.302-31.528 4.256-8.236 7.307-17.979 7.307-23.335 0-1.676.45-3.325 1-3.665.631-.39 1-11.76 1-30.809V133.5l-128.59.258-128.591.257.45 33.743m.176-3.258c-.001 17.05.136 24.166.303 15.812.167-8.353.167-22.303 0-31-.166-8.696-.303-1.862-.303 15.188" fill="#1976D2" fill-rule="evenodd"/></svg>