<svg xmlns="http://www.w3.org/2000/svg" viewBox="0 0 800 800"><defs><style>.cls-1{fill:#2e2c5e;}.cls-2{fill:none;}</style></defs><g id="Layer_2" data-name="Layer 2"><g id="Layer_1-2" data-name="Layer 1"><path class="cls-1" d="M0,376v22H0q.06-11.07.71-22Z"/><path class="cls-1" d="M800,398V376h-.72q.66,10.92.71,22Z"/><path class="cls-2" d="M0,400q0,9,.41,18H799.59q.4-9,.41-18c0-.67,0-1.33,0-2H0C0,398.67,0,399.33,0,400Z"/><path class="cls-2" d="M.72,376H799.28q-.59-10.06-1.68-20H2.4Q1.32,365.93.72,376Z"/><path class="cls-2" d="M49,208H751q-5.6-10.19-11.73-20H60.74Q54.61,197.81,49,208Z"/><path class="cls-2" d="M29.08,250H770.92q-4.11-10.14-8.74-20H37.82Q33.18,239.86,29.08,250Z"/><path class="cls-2" d="M274.78,20a396.08,396.08,0,0,0-49.33,20h349.1a396.08,396.08,0,0,0-49.33-20Z"/><path class="cls-2" d="M157.33,82H642.67Q628.79,71.4,614,62H186Q171.22,71.39,157.33,82Z"/><path class="cls-2" d="M5.42,334H794.58q-1.68-10.1-3.85-20H9.27Q7.1,323.92,5.42,334Z"/><path class="cls-2" d="M75.56,166H724.44Q717,155.76,709,146H91Q83,155.75,75.56,166Z"/><path class="cls-2" d="M110.48,124h579q-9.87-10.36-20.47-20H131Q120.36,113.63,110.48,124Z"/><path class="cls-2" d="M14.76,292H785.24q-2.82-10.11-6.16-20H20.92Q17.59,281.89,14.76,292Z"/><path class="cls-1" d="M60.74,188H739.26q-7.05-11.25-14.82-22H75.56Q67.81,176.74,60.74,188Z"/><path class="cls-1" d="M2.4,356H797.6q-1.22-11.1-3-22H5.42Q3.61,344.91,2.4,356Z"/><path class="cls-1" d="M9.27,314H790.73q-2.43-11.12-5.49-22H14.76Q11.72,302.88,9.27,314Z"/><path class="cls-1" d="M91,146H709q-9.35-11.35-19.5-22h-579Q100.32,134.64,91,146Z"/><path class="cls-1" d="M37.82,230H762.18q-5.26-11.19-11.19-22H49Q43.1,218.8,37.82,230Z"/><path class="cls-1" d="M20.92,272H779.08q-3.76-11.14-8.16-22H29.08Q24.7,260.85,20.92,272Z"/><path class="cls-1" d="M400,0A399.68,399.68,0,0,0,274.78,20H525.22A399.68,399.68,0,0,0,400,0Z"/><path class="cls-1" d="M186,62H614a398.87,398.87,0,0,0-39.44-22H225.45A398.87,398.87,0,0,0,186,62Z"/><path class="cls-1" d="M131,104h538.1q-12.7-11.55-26.38-22H157.33Q143.67,92.44,131,104Z"/><path class="cls-1" d="M400,800c214.88,0,390.18-169.44,399.59-382H.41C9.82,630.56,185.12,800,400,800Z"/><path class="cls-1" d="M0,398H800q-.06-11.07-.71-22H.72Q.06,386.92,0,398Z"/></g></g></svg>