<svg xmlns="http://www.w3.org/2000/svg" viewBox="0 0 800 800"><defs><style>.cls-1{fill:#fff;}</style></defs><g id="Layer_2" data-name="Layer 2"><g id="Layer_1-2" data-name="Layer 1"><path class="cls-1" d="M0,376v22H0q.06-11.07.71-22Z"/><path class="cls-1" d="M800,398V376h-.72q.66,10.92.71,22Z"/><path class="cls-1" d="M60.74,188H739.26q-7.05-11.25-14.82-22H75.56Q67.81,176.74,60.74,188Z"/><path class="cls-1" d="M2.4,356H797.6q-1.22-11.1-3-22H5.42Q3.61,344.91,2.4,356Z"/><path class="cls-1" d="M9.27,314H790.73q-2.43-11.12-5.49-22H14.76Q11.72,302.88,9.27,314Z"/><path class="cls-1" d="M91,146H709q-9.35-11.35-19.5-22h-579Q100.32,134.64,91,146Z"/><path class="cls-1" d="M37.82,230H762.18q-5.26-11.19-11.19-22H49Q43.1,218.8,37.82,230Z"/><path class="cls-1" d="M20.92,272H779.08q-3.76-11.14-8.16-22H29.08Q24.7,260.85,20.92,272Z"/><path class="cls-1" d="M400,0A399.68,399.68,0,0,0,274.78,20H525.22A399.68,399.68,0,0,0,400,0Z"/><path class="cls-1" d="M186,62H614a398.87,398.87,0,0,0-39.44-22H225.45A398.87,398.87,0,0,0,186,62Z"/><path class="cls-1" d="M131,104h538.1q-12.7-11.55-26.38-22H157.33Q143.67,92.44,131,104Z"/><path class="cls-1" d="M400,800c214.88,0,390.18-169.44,399.59-382H.41C9.82,630.56,185.12,800,400,800Z"/><path class="cls-1" d="M0,398H800q-.06-11.07-.71-22H.72Q.06,386.92,0,398Z"/></g></g></svg>